<svg preserveAspectRatio="none" overflow="visible" style="display: block;" width="9" height="12" viewBox="0 0 9 12" fill="none" xmlns="http://www.w3.org/2000/svg">
<g id="Container">
<path id="Symbol" d="M1.5 10.875C1.26562 10.8594 1.14062 10.7344 1.125 10.5V1.5C1.14062 1.26562 1.26562 1.14062 1.5 1.125H5.25V3C5.25 3.21875 5.32031 3.39844 5.46094 3.53906C5.60156 3.67969 5.78125 3.75 6 3.75H7.875V10.5C7.85938 10.7344 7.73438 10.8594 7.5 10.875H1.5V10.875V10.875M1.5 0C1.07812 0.015625 0.726562 0.164062 0.445312 0.445312V0.445312C0.164062 0.726562 0.015625 1.07812 0 1.5V10.5C0.015625 10.9219 0.164062 11.2734 0.445312 11.5547C0.726562 11.8359 1.07812 11.9844 1.5 12H7.5C7.92188 11.9844 8.27344 11.8359 8.55469 11.5547C8.83594 11.2734 8.98438 10.9219 9 10.5V3.63281C9 3.21094 8.85156 2.85156 8.55469 2.55469L6.44531 0.445312C6.14844 0.148438 5.79688 0 5.39062 0H1.5V0V0M2.8125 6C2.46875 6.03125 2.28125 6.21875 2.25 6.5625C2.28125 6.90625 2.46875 7.09375 2.8125 7.125H6.1875C6.53125 7.09375 6.71875 6.90625 6.75 6.5625C6.71875 6.21875 6.53125 6.03125 6.1875 6H2.8125V6V6M2.8125 8.25C2.46875 8.28125 2.28125 8.46875 2.25 8.8125C2.28125 9.15625 2.46875 9.34375 2.8125 9.375H6.1875C6.53125 9.34375 6.71875 9.15625 6.75 8.8125C6.71875 8.46875 6.53125 8.28125 6.1875 8.25H2.8125V8.25V8.25" fill="#353037"/>
</g>
</svg>
